<svg width="1200" height="232" viewBox="0 0 1200 232" fill="none" xmlns="http://www.w3.org/2000/svg">
<path fill-rule="evenodd" clip-rule="evenodd" d="M124.242 201.069C185.374 201.069 234.931 151.813 234.931 91.0516C234.931 53.1902 215.689 19.7957 186.395 0.00201595C223.514 21.4886 248.484 61.6304 248.484 107.605C248.484 176.222 192.859 231.847 124.242 231.847C55.6251 231.847 -4.0899e-06 176.222 0 107.605C2.74036e-06 61.629 24.9724 21.4861 62.093 0C32.7971 19.7934 13.5539 53.1889 13.5539 91.0516C13.5539 151.813 63.1109 201.069 124.242 201.069Z" fill="url(#paint0_linear_342_456)"/>
<path d="M403.046 78.0513H361.93V48H481.837V78.0513H440.912V181.987H403.046V78.0513Z" fill="white"/>
<path d="M592.298 155.955H535.691L525.173 181.987H486.543L545.636 48H582.927L642.211 181.987H602.816L592.298 155.955ZM581.206 128.009L563.995 85.1335L546.783 128.009H581.206Z" fill="white"/>
<path d="M725.301 184.666C705.413 184.666 689.922 179.243 678.83 168.397C667.866 157.55 662.384 142.174 662.384 122.267V48H700.249V121.118C700.249 142.556 708.727 153.275 725.684 153.275C742.513 153.275 750.927 142.556 750.927 121.118V48H788.219V122.267C788.219 142.174 782.673 157.55 771.581 168.397C760.617 179.243 745.19 184.666 725.301 184.666Z" fill="white"/>
<path d="M885.776 146.385H865.122V181.987H827.257V48H888.453C900.565 48 911.083 50.0417 920.008 54.1251C928.932 58.0809 935.817 63.8232 940.661 71.352C945.506 78.7531 947.929 87.4942 947.929 97.5751C947.929 107.273 945.634 115.759 941.044 123.033C936.582 130.179 930.143 135.793 921.729 139.877L950.606 181.987H910.063L885.776 146.385ZM909.681 97.5751C909.681 91.3224 907.705 86.4733 903.752 83.028C899.8 79.5826 893.936 77.8599 886.158 77.8599H865.122V117.099H886.158C893.936 117.099 899.8 115.44 903.752 112.122C907.705 108.677 909.681 103.828 909.681 97.5751Z" fill="white"/>
<path d="M982.205 48H1020.07V181.987H982.205V48Z" fill="white"/>
<path d="M1150.09 155.955H1093.48L1082.96 181.987H1044.33L1103.42 48H1140.72L1200 181.987H1160.61L1150.09 155.955ZM1139 128.009L1121.78 85.1335L1104.57 128.009H1139Z" fill="white"/>
<defs>
<linearGradient id="paint0_linear_342_456" x1="124.242" y1="231.543" x2="124.242" y2="0" gradientUnits="userSpaceOnUse">
<stop stop-color="#00E0FF"/>
<stop offset="0.435578" stop-color="#1577FE"/>
<stop offset="0.801151" stop-color="#6625FB"/>
</linearGradient>
</defs>
</svg>
